<?xml version="1.0" standalone="no"?>
<!DOCTYPE svg PUBLIC "-//W3C//DTD SVG 20010904//EN"
 "http://www.w3.org/TR/2001/REC-SVG-20010904/DTD/svg10.dtd">
<svg version="1.0" xmlns="http://www.w3.org/2000/svg"
 width="1260.000000pt" height="1260.000000pt" viewBox="0 0 1260.000000 1260.000000"
 preserveAspectRatio="xMidYMid meet">
<metadata>
Created by potrace 1.11, written by Peter Selinger 2001-2013
</metadata>
<g transform="translate(0.000000,1260.000000) scale(0.100000,-0.100000)"
fill="#000000" stroke="none">
<path d="M9848 9530 c-235 -20 -503 -93 -716 -195 -386 -185 -704 -501 -887
-880 -138 -286 -198 -555 -198 -890 0 -211 15 -335 63 -522 257 -995 1235
-1599 2295 -1418 480 82 878 332 1167 733 33 46 59 85 57 87 -2 1 -94 65 -204
140 -110 76 -248 171 -306 211 l-106 73 -55 -77 c-215 -300 -473 -452 -819
-482 -351 -30 -675 80 -908 309 -522 512 -485 1511 72 1956 182 146 407 229
657 242 384 21 718 -127 932 -412 34 -44 64 -80 68 -80 11 0 600 419 600 427
0 20 -167 227 -254 313 -126 125 -246 210 -401 285 -184 90 -371 144 -585 169
-130 15 -353 20 -472 11z"/>
<path d="M5260 9140 l0 -350 545 0 545 0 2 -1572 3 -1573 395 0 395 0 3 1572
2 1573 548 2 547 3 3 348 2 347 -1495 0 -1495 0 0 -350z"/>
<path d="M6570 5129 c-431 -31 -812 -234 -1015 -540 -88 -132 -149 -340 -143
-486 l3 -68 390 -3 391 -2 11 75 c14 100 53 176 127 251 101 101 240 154 406
154 163 0 301 -51 389 -145 103 -109 149 -259 138 -445 -18 -279 -158 -452
-403 -495 -55 -10 -162 -14 -347 -15 l-267 0 2 -302 3 -303 315 -6 c255 -4
326 -9 374 -23 192 -55 292 -147 352 -322 35 -104 45 -310 20 -418 -47 -201
-205 -353 -411 -397 -87 -18 -267 -16 -343 4 -227 60 -383 231 -408 446 l-7
61 -393 0 -394 0 0 -72 c0 -144 39 -313 101 -446 136 -285 487 -519 906 -603
137 -27 423 -37 574 -20 379 44 673 173 895 395 202 201 291 416 301 726 6
177 -8 277 -58 413 -88 242 -286 441 -541 545 -37 15 -68 29 -68 32 0 3 19 14
42 24 90 42 217 137 304 229 195 205 275 418 260 692 -18 342 -149 606 -393
789 -219 165 -481 252 -828 276 -82 5 -157 9 -165 8 -8 0 -62 -4 -120 -9z"/>
<path d="M9925 5130 c-477 -40 -867 -306 -1076 -735 -119 -245 -166 -519 -140
-823 38 -440 195 -763 473 -972 190 -143 384 -207 663 -216 136 -5 174 -3 257
14 179 37 316 111 452 243 l79 78 -6 -197 c-7 -218 -24 -325 -74 -453 -83
-213 -255 -371 -463 -426 -49 -13 -103 -17 -220 -17 -236 2 -405 28 -608 95
-51 17 -95 29 -98 26 -5 -4 -94 -547 -94 -570 0 -28 269 -112 475 -148 156
-27 424 -36 576 -19 584 64 1038 415 1222 945 89 257 100 393 94 1190 -4 677
-7 714 -62 935 -83 333 -241 589 -483 782 -253 201 -604 299 -967 268z m236
-630 c146 -27 276 -135 354 -293 87 -177 115 -355 115 -740 l0 -229 -62 -62
c-115 -115 -250 -177 -426 -198 -256 -30 -429 62 -537 287 -72 150 -101 316
-92 525 7 160 39 288 103 412 123 238 313 341 545 298z"/>
</g>
</svg>
